<svg xmlns="http://www.w3.org/2000/svg" width="609" height="652" version="1"><path fill="#0ff" fill-rule="evenodd" d="M207.584 525.362l.135-127.893C294.83 461.9 375.42 468.063 452.354 478l-.14 48.477-244.63-1.114z"/><path fill="none" stroke="#000" stroke-width="3" d="M65.2 20.062v506.553h532.885"/><path fill="none" stroke="#000" stroke-width="2.5" d="M100.308 20.062c27.386 418.214 109.385 441.73 499.03 471.446"/><path fill="none" stroke="#000" d="M452.638 609.37V477.714"/><text x="428.742" y="651.898" font-family="Times New Roman" font-style="italic" font-weight="400" transform="scale(1.01055 .98956)" style="line-height:0%;text-align:start"><tspan style="line-height:1.25" x="428.742" y="651.898" fill="#00f" font-size="76.721">e</tspan></text><text x="185.332" y="588.495" font-family="Times New Roman" font-weight="400" transform="scale(1.05 .95238)" style="line-height:0%;text-align:start"><tspan style="line-height:1.25" x="185.332" y="588.495" font-size="44.986">1</tspan></text><text x="357.647" y="539.201" font-family="Times New Roman" font-weight="400" transform="scale(.9599 1.04177)" style="line-height:0%;text-align:start"><tspan style="line-height:1.25" x="357.647" y="539.201" font-size="41.125">2</tspan></text><text style="line-height:0%;text-align:start" x="34.985" y="457.42" font-family="Times New Roman" font-weight="400" transform="scale(1.10216 .90731)"><tspan style="line-height:1.25" x="34.985" y="457.42" font-size="47.22">1</tspan></text><text style="line-height:0%;text-align:start" x="42.848" y="275.618" font-family="Times New Roman" font-weight="400" transform="scale(.9599 1.04177)"><tspan style="line-height:1.25" x="42.848" y="275.618" font-size="41.125">2</tspan></text><text x="43.741" y="154.79" font-family="Times New Roman" font-weight="400" transform="scale(.96537 1.03587)" style="line-height:0%;text-align:start"><tspan style="line-height:1.25" x="43.741" y="154.79" font-size="39.355">3</tspan></text><path fill="none" stroke="#000" stroke-width="1.95" d="M64.333 398.334H78.92M64.333 272.334H78.92M64.333 146.334H78.92M207.627 525.628V511.04M351.627 525.628V511.04M495.627 525.628V511.04"/><text style="line-height:0%;text-align:start" x="506.123" y="539.705" font-family="Times New Roman" font-weight="400" transform="scale(.96537 1.03587)"><tspan style="line-height:1.25" x="506.123" y="539.705" font-size="39.355">3</tspan></text><text x="243.872" y="499.464" stroke-width=".749" font-family="Times New Roman" font-size="29.972" font-style="italic" font-weight="400" letter-spacing="0" word-spacing="0" style="line-height:1.25;-inkscape-font-specification:'Times New Roman, Italic'"><tspan style="-inkscape-font-specification:'Times New Roman, Italic'" x="243.872" y="499.464" font-size="39.963">a<tspan font-style="normal" style="-inkscape-font-specification:'Times New Roman, '"> = 1</tspan></tspan></text><text x="402" y="70" font-family="Times New Roman" font-size="40" font-style="italic" font-weight="400" letter-spacing="0" word-spacing="0" style="line-height:1.25;-inkscape-font-specification:'Times New Roman, Italic'"><tspan x="402" y="70">y<tspan font-style="normal" style="-inkscape-font-specification:'Times New Roman, '"> =</tspan><tspan font-style="normal" style="-inkscape-font-specification:'Times New Roman, '"> 1/</tspan>x</tspan></text></svg>