<svg xmlns="http://www.w3.org/2000/svg" width="270" height="156" version="1"><text x="260.592" y="593.465" font-family="Gill Sans MT" font-size="28" style="text-align:center" text-anchor="middle" transform="translate(-196.444 -537.22)"/><path fill="#007e00" fill-rule="evenodd" d="M16.723 55.437c.534 10.807 11.127 19.129 34.5 18.875h56.656c21.069 0 24.643 7.842 27.312 13.75 2.67-5.908 6.244-13.75 27.313-13.75h56.656c23.373.254 33.966-8.068 34.5-18.875-3.847 7.362-8.51 16-29.781 16h-63.625c-16.897 0-22.681 6.659-25.063 9.656-2.38-2.997-8.165-9.656-25.062-9.656H46.504c-21.27 0-25.934-8.638-29.781-16z"/><path fill="#00f" d="M16.204 39.5l-.875.906-3.969 3.969-.875.875.875.906 3.969 3.969.875.875.906-.875 3.625-3.625h138.156l3.657 3.625.875.875v-3.531l-2.188-2.219 2.188-2.188V39.5l-.875.906-3.657 3.657V44H20.704l-3.594-3.594zm0 3.563l2.219 2.187-2.22 2.219-2.187-2.219z"/><path fill="red" d="M163.423 39.5v3.563l2.218 2.187-2.218 2.219V51l.906-.875 3.625-3.625h81.281l3.656 3.625.875.875.875-.875 3.969-3.969.906-.906-.906-.875-3.969-3.969-.875-.906-.875.906L249.266 44h-81.343l-3.594-3.594zm90.343 3.563l2.219 2.187-2.219 2.219-2.218-2.219z"/><path fill="#00f" d="M94.34 18.07l1.679-1.203 1.167.292-2.681 11.563c-.268 1.155-.401 2.055-.401 2.7 0 .486.079.839.237 1.057.158.22.407.329.748.329.364 0 .754-.15 1.167-.447.413-.298.997-.866 1.75-1.705l1.04 1.02c-1.094 1.168-2.027 1.998-2.8 2.49a4.576 4.576 0 0 1-2.507.74c-.754 0-1.356-.25-1.806-.749-.45-.498-.675-1.16-.675-1.988 0-.668.14-1.38.42-2.134l-.237-.073c-1.168 1.703-2.274 2.95-3.32 3.74-1.045.79-2.152 1.185-3.32 1.185-1.337 0-2.373-.505-3.11-1.514-.735-1.01-1.103-2.426-1.103-4.25 0-2.091.41-4.1 1.232-6.028.82-1.927 1.948-3.447 3.383-4.56 1.435-1.112 3.034-1.668 4.797-1.668.79 0 1.529.088 2.216.264.687.176 1.395.49 2.125.94zm-1.604 5.436c.11-.499.182-.93.219-1.295.036-.365.054-.76.054-1.186 0-.936-.2-1.623-.602-2.06-.4-.439-1.082-.657-2.042-.657-1.253 0-2.378.504-3.375 1.513-.997 1.01-1.775 2.362-2.334 4.059a16.139 16.139 0 0 0-.84 5.08c0 1.264.174 2.21.52 2.835.347.627.928.94 1.742.94.803 0 1.59-.347 2.362-1.04.773-.693 1.569-1.68 2.39-2.964.82-1.283 1.401-2.763 1.742-4.44z" font-family="Gill Sans MT" font-size="37.354" style="text-align:center" text-anchor="middle"/><path fill="red" d="M203.177 33.72l-1.678 1.185-1.168-.292 4.724-20.847c.28-1.24.42-2.14.42-2.7 0-.51-.155-.869-.465-1.075-.31-.207-.867-.323-1.67-.347l.22-.948 4.614-.165h1.058l-3.21 12.768.237.073c1.18-1.58 2.286-2.724 3.32-3.43 1.033-.704 2.067-1.057 3.1-1.057 1.326 0 2.356.505 3.092 1.514.735 1.01 1.103 2.432 1.103 4.268 0 2.006-.404 3.979-1.213 5.918-.808 1.94-1.93 3.478-3.365 4.615-1.435 1.137-3.04 1.705-4.815 1.705-1.617 0-3.052-.395-4.304-1.185zm1.605-5.454a11.826 11.826 0 0 0-.274 2.48c0 .961.21 1.654.63 2.08.419.426 1.115.638 2.088.638.498 0 .972-.082 1.422-.246.45-.164.91-.435 1.377-.811.468-.377.912-.873 1.332-1.487.42-.614.805-1.371 1.158-2.27.353-.9.626-1.864.82-2.892.195-1.027.293-2.009.293-2.945 0-1.265-.18-2.213-.538-2.846-.36-.632-.934-.948-1.724-.948-.584 0-1.158.185-1.724.556-.565.371-1.194.985-1.887 1.842a13.809 13.809 0 0 0-1.697 2.636c-.437.9-.808 2.049-1.112 3.447z" font-family="Gill Sans MT" font-size="37.354" style="text-align:center" text-anchor="middle"/><path fill="#007e00" d="M116.423 98.147l1.678-1.204 1.168.292-2.682 11.563c-.267 1.155-.4 2.055-.4 2.7 0 .486.078.839.236 1.058.158.218.408.328.748.328.365 0 .754-.15 1.167-.447.414-.298.997-.866 1.751-1.705l1.04 1.021c-1.094 1.167-2.028 1.997-2.8 2.49a4.576 4.576 0 0 1-2.508.738c-.753 0-1.355-.249-1.805-.747-.45-.499-.675-1.162-.675-1.989 0-.668.14-1.38.42-2.134l-.238-.073c-1.167 1.703-2.274 2.95-3.32 3.74-1.045.79-2.151 1.185-3.319 1.185-1.337 0-2.374-.505-3.11-1.514-.735-1.009-1.103-2.426-1.103-4.25 0-2.091.41-4.1 1.231-6.028.82-1.927 1.949-3.447 3.383-4.56 1.435-1.112 3.034-1.668 4.797-1.668.79 0 1.53.088 2.216.264.687.177 1.396.49 2.125.94zm-1.605 5.435c.11-.499.183-.93.22-1.295.036-.365.054-.76.054-1.186 0-.936-.2-1.623-.602-2.06-.401-.438-1.082-.657-2.043-.657-1.252 0-2.377.504-3.374 1.513-.997 1.01-1.775 2.362-2.335 4.059a16.14 16.14 0 0 0-.839 5.08c0 1.264.174 2.21.52 2.836.347.626.927.939 1.742.939.802 0 1.59-.347 2.362-1.04.772-.693 1.568-1.68 2.39-2.964.82-1.282 1.4-2.763 1.741-4.44zm21.979 1.641v10.506h-2.59v-10.506h-9.94v-2.425h9.94V92.292h2.59v10.506h9.94v2.425zm17.217 8.573l-1.678 1.185-1.167-.291 4.724-20.848c.28-1.24.42-2.14.42-2.7 0-.51-.156-.869-.466-1.075-.31-.207-.866-.323-1.668-.347l.218-.948 4.615-.165h1.058l-3.21 12.768.237.073c1.18-1.58 2.286-2.724 3.32-3.43 1.033-.704 2.066-1.057 3.1-1.057 1.325 0 2.356.505 3.092 1.514.735 1.01 1.103 2.432 1.103 4.268 0 2.006-.404 3.98-1.213 5.918-.809 1.94-1.93 3.478-3.365 4.615-1.435 1.137-3.04 1.705-4.815 1.705-1.617 0-3.052-.395-4.305-1.185zm1.605-5.454a11.825 11.825 0 0 0-.273 2.48c0 .961.21 1.654.63 2.08.419.426 1.115.638 2.087.638.499 0 .973-.082 1.423-.246.45-.164.909-.434 1.377-.811.468-.377.912-.873 1.332-1.487.42-.614.805-1.37 1.158-2.27.352-.9.626-1.864.82-2.892.195-1.027.292-2.009.292-2.945 0-1.265-.179-2.213-.538-2.846-.358-.632-.933-.948-1.723-.948-.584 0-1.158.185-1.724.556-.565.371-1.195.985-1.888 1.842a13.809 13.809 0 0 0-1.696 2.636c-.438.9-.808 2.049-1.112 3.447z" font-family="Gill Sans MT" font-size="37.354" style="text-align:center" text-anchor="middle"/><text x="29.16" y="149.156" font-family="Times New Roman" font-size="40" font-weight="400" letter-spacing="0" style="line-height:1.25;-inkscape-font-specification:'Times New Roman, '" word-spacing="0"><tspan x="29.16" y="149.156" font-size="32" font-style="italic" style="-inkscape-font-specification:'Times New Roman, Italic'"><tspan fill="green">a+b</tspan>/<tspan fill="#00f">a</tspan> = <tspan fill="#00f">a</tspan>/<tspan fill="red">b</tspan> = <tspan fill="#a80">φ</tspan></tspan></text></svg>