<svg xmlns="http://www.w3.org/2000/svg" width="600" height="600" version="1"><path fill="#00f" d="M255.531 32.594l6.156 5.187C139.624 55.317 46.883 152.515 36 276.906 23.251 422.622 131.19 551.251 276.906 564 422.622 576.749 551.251 468.841 564 323.125c12.3-140.588-87.763-265.291-225.688-285.344l6.157-5.187-21.438 4.156 20.406 7.813-4.343-5.157C475.744 59.79 574.703 183.493 562.5 322.97 549.822 467.876 421.939 575.178 277.031 562.5 132.124 549.822 24.822 421.97 37.5 277.062 48.295 153.677 139.993 57.226 260.906 39.406l-4.344 5.157 20.407-7.813-21.438-4.156z"/><path fill="none" stroke="#000" stroke-width="1.5" d="M550 300c.023 138.088-111.912 250.042-250 250.042S49.977 438.088 50 300C49.977 161.912 161.912 49.958 300 49.958S550.023 161.912 550 300z"/><text x="281.101" y="43.294" font-family="DejaVu Serif" font-size="49.2" font-style="italic" font-weight="400" style="text-align:start;line-height:125%"><tspan x="281.101" y="43.294" fill="#00f">C</tspan></text><text x="360.538" y="232.897" font-family="DejaVu Serif" font-size="40.754" font-style="italic" font-weight="400" style="text-align:start;line-height:125%"><tspan x="360.538" y="232.897" fill="red">d</tspan></text><text x="94.748" y="448.139" fill="red" font-family="DejaVu Serif" font-size="39.006" font-weight="400" style="text-align:start;line-height:125%" transform="rotate(-30)"><tspan x="94.748" y="448.139">diameter</tspan></text><path fill="#00f" d="M21.392 209.245c1.695 1.312 2.751 2.817 3.17 4.514.42 1.697.176 3.527-.732 5.49-1.198 2.586-3.016 4.27-5.456 5.05-2.44.78-5.075.514-7.907-.797-2.844-1.316-4.752-3.154-5.725-5.513-.972-2.36-.86-4.833.338-7.42a16.146 16.146 0 0 1 1.949-3.18 18.486 18.486 0 0 1 2.752-2.808l4.55 2.106-.829 1.79c-1.67-.489-3.043-.505-4.12-.05-1.078.456-1.955 1.415-2.631 2.875-.77 1.662-.706 3.214.19 4.658.895 1.444 2.626 2.759 5.19 3.946 2.565 1.187 4.689 1.66 6.372 1.416 1.683-.243 2.912-1.2 3.686-2.873.614-1.327.759-2.547.434-3.658-.325-1.112-1.117-2.136-2.377-3.07l1.146-2.476zM6.34 195.225c-.503-.256-.847-.663-1.032-1.22a2.009 2.009 0 0 1 .116-1.606c.257-.504.665-.844 1.224-1.02.56-.177 1.09-.137 1.594.12.514.262.86.666 1.037 1.212a2.008 2.008 0 0 1-.129 1.59 2.038 2.038 0 0 1-1.216 1.045 1.993 1.993 0 0 1-1.594-.12zm23.098 6.923l1.458-2.856 1.74.888-4.473 8.767-1.74-.888 1.474-2.89-13.955-7.12-1.474 2.89-1.757-.897 3.016-5.91 15.711 8.016zm-4.85-28.086l4.287 2.38-.949 1.708c-.878-.417-1.643-.533-2.295-.347-.651.187-1.2.683-1.648 1.489-.811 1.46-.928 2.86-.35 4.2.577 1.34 1.811 2.534 3.702 3.584l7.832 4.348 1.905-3.433 1.708.948-5.036 9.073-1.708-.948 1.485-2.675-13.73-7.622-1.574 2.836-1.692-.94 3.22-5.8 3.046 1.69c-.87-1.242-1.34-2.479-1.408-3.711-.068-1.232.262-2.504.99-3.814.268-.484.588-.97.958-1.46s.79-.992 1.257-1.506zm22.322-10.116c1.527 1.504 2.398 3.123 2.613 4.858.215 1.735-.245 3.523-1.38 5.364-1.496 2.427-3.501 3.882-6.016 4.367-2.515.485-5.1-.091-7.757-1.729-2.667-1.644-4.344-3.695-5.03-6.154-.686-2.458-.28-4.9 1.215-7.327a16.145 16.145 0 0 1 2.313-2.926 18.484 18.484 0 0 1 3.066-2.462l4.268 2.631-1.035 1.679c-1.6-.683-2.962-.862-4.086-.538-1.124.325-2.108 1.172-2.953 2.543-.96 1.558-1.082 3.107-.364 4.647.718 1.54 2.28 3.05 4.685 4.534 2.406 1.483 4.459 2.204 6.16 2.162 1.7-.042 3.033-.847 4-2.416.767-1.245 1.056-2.438.865-3.58-.19-1.143-.856-2.253-1.996-3.331l1.432-2.322zM44.3 143.373l3.61-5.212 14.5 10.042 1.827-2.637 1.606 1.113-3.757 5.424-2.848-1.973c.714 1.257 1.068 2.489 1.062 3.695-.006 1.207-.384 2.35-1.132 3.431-1.238 1.788-2.657 2.752-4.256 2.893-1.6.14-3.485-.541-5.657-2.046l-8.622-5.97-1.742 2.515-1.621-1.123 3.683-5.318 9.38 6.495c1.96 1.357 3.469 2.048 4.528 2.072 1.06.023 2.016-.58 2.87-1.813.895-1.293 1.103-2.607.622-3.941-.481-1.335-1.626-2.628-3.434-3.88l-7.318-5.068-1.68 2.424-1.62-1.123zm22.13-23.12c-.713-1.407-1.037-2.735-.973-3.983.064-1.248.52-2.4 1.365-3.454 1.285-1.6 2.738-2.395 4.36-2.385 1.623.01 3.436.82 5.439 2.427l8.193 6.575 1.915-2.386 1.524 1.223-5.884 7.33-1.524-1.222 1.846-2.3-7.891-6.333c-1.562-1.254-2.858-1.916-3.889-1.987-1.03-.07-1.972.426-2.826 1.49-.946 1.179-1.221 2.435-.826 3.768.395 1.333 1.445 2.684 3.151 4.053l6.986 5.607 1.846-2.3 1.524 1.223-5.815 7.245-1.523-1.223 1.845-2.3-7.992-6.414c-1.523-1.223-2.793-1.864-3.81-1.923-1.015-.06-1.95.443-2.804 1.507-.946 1.178-1.221 2.434-.826 3.768.395 1.333 1.446 2.684 3.151 4.053l6.986 5.607 1.846-2.3 1.524 1.223-5.884 7.33-1.523-1.222 1.915-2.386-12.247-9.83-2.03 2.53-1.51-1.21 4.153-5.176 2.717 2.18c-.624-1.303-.9-2.549-.83-3.737.072-1.187.492-2.26 1.26-3.219.955-1.188 2.045-1.943 3.273-2.266 1.228-.322 2.49-.183 3.789.418zm15.781-30.79l-1.199 1.327c-.692-.608-1.386-.884-2.084-.827-.697.057-1.371.445-2.022 1.166-.849.939-1.188 1.832-1.02 2.68.17.849.915 1.87 2.237 3.065l1.873 1.693 3.67-4.061 1.464 1.322-3.67 4.061 11.623 10.504L96 107.166l1.45 1.31-7.365 8.15-1.45-1.31 2.175-2.407-11.623-10.504-2.175 2.407-1.463-1.322 2.175-2.407-1.82-1.643c-1.622-1.467-2.467-2.997-2.534-4.59-.068-1.592.636-3.205 2.11-4.837a13.763 13.763 0 0 1 3.97-3.046l2.762 2.497zm23.915-3.48L95.871 96.397l.105.104c1.883 1.853 3.653 2.897 5.31 3.132 1.657.234 3.166-.34 4.528-1.724 1.043-1.06 1.62-2.202 1.733-3.428.112-1.226-.246-2.514-1.073-3.863l1.913-1.944c1.154 1.894 1.605 3.74 1.354 5.535-.251 1.797-1.208 3.54-2.872 5.23-2.008 2.04-4.295 3.018-6.858 2.934-2.564-.084-4.958-1.22-7.182-3.41-2.207-2.172-3.386-4.53-3.536-7.075-.15-2.545.749-4.807 2.697-6.786 2.077-2.11 4.322-3.09 6.734-2.94 2.413.15 4.88 1.424 7.4 3.82zm-4.199 1.48c-1.68-1.552-3.246-2.417-4.699-2.597-1.452-.18-2.765.326-3.937 1.517-1.095 1.112-1.54 2.397-1.338 3.856.202 1.458 1.045 3.054 2.527 4.789l7.447-7.566zm12.213-22.829l3.327 3.601-1.435 1.326c-.704-.671-1.394-1.02-2.072-1.047-.677-.027-1.354.272-2.03.898-1.228 1.134-1.777 2.427-1.647 3.88.129 1.453.928 2.974 2.395 4.562l6.079 6.58 2.883-2.665 1.326 1.435-7.621 7.042-1.326-1.435 2.247-2.076L105.61 75.2l-2.382 2.201-1.313-1.421 4.873-4.503 2.364 2.558c-.438-1.452-.497-2.773-.176-3.965.321-1.192 1.032-2.296 2.133-3.313a12.46 12.46 0 0 1 1.367-1.088c.505-.35 1.06-.695 1.665-1.036zm22.9-6.02l-11.191 9.4.094.114c1.7 2.023 3.363 3.23 4.99 3.62 1.628.39 3.185-.04 4.671-1.288 1.139-.956 1.822-2.04 2.05-3.25.227-1.21-.008-2.525-.704-3.946l2.089-1.754c.969 1.994 1.243 3.873.824 5.638-.42 1.764-1.537 3.41-3.353 4.934-2.193 1.842-4.561 2.6-7.105 2.273-2.545-.326-4.82-1.684-6.828-4.074-1.991-2.37-2.942-4.83-2.85-7.378.09-2.547 1.199-4.714 3.325-6.5 2.268-1.904 4.595-2.668 6.982-2.29 2.388.378 4.723 1.879 7.007 4.502zm-4.319 1.077c-1.526-1.703-3.003-2.712-4.432-3.028-1.43-.317-2.784.063-4.063 1.137-1.195 1.004-1.76 2.241-1.697 3.712.064 1.47.752 3.14 2.063 5.007l8.13-6.828zm13.054 3.987l-1.173-1.563 2.447-1.837-9.408-12.527-2.594 1.947-1.184-1.577 5.306-3.984 2.092 2.786c-.296-1.438-.246-2.727.149-3.869.395-1.142 1.123-2.111 2.184-2.908 1.73-1.298 3.374-1.758 4.935-1.378 1.56.38 3.13 1.622 4.71 3.724l6.308 8.401 2.417-1.815 1.173 1.562-7.487 5.622-1.173-1.562 2.343-1.76-5.666-7.546c-1.439-1.916-2.662-3.053-3.668-3.41-1.007-.359-2.105-.092-3.293.801-1.258.944-1.871 2.123-1.84 3.536.032 1.413.708 3 2.029 4.758l5.379 7.163 2.358-1.771 1.173 1.562-7.517 5.645zm31.084-29.346c.766 2.002.888 3.836.365 5.505-.523 1.668-1.683 3.104-3.478 4.31-2.367 1.588-4.796 2.082-7.285 1.482-2.49-.601-4.604-2.197-6.344-4.789-1.746-2.601-2.422-5.163-2.027-7.684.394-2.521 1.775-4.576 4.142-6.165a16.145 16.145 0 0 1 3.317-1.705 18.485 18.485 0 0 1 3.81-.97l2.794 4.162-1.637 1.1c-1.173-1.285-2.338-2.013-3.496-2.183-1.157-.17-2.404.193-3.74 1.09-1.521 1.02-2.273 2.38-2.258 4.079.016 1.699.81 3.722 2.386 6.068 1.575 2.347 3.144 3.853 4.709 4.52 1.565.666 3.112.486 4.643-.541 1.214-.815 1.97-1.782 2.27-2.9.3-1.12.155-2.405-.436-3.859l2.265-1.52zm17.412-14.728l-12.532 7.521.076.127c1.36 2.265 2.812 3.718 4.358 4.36 1.546.641 3.15.462 4.815-.537 1.275-.765 2.12-1.727 2.535-2.886.415-1.159.39-2.495-.073-4.008l2.339-1.404c.643 2.122.618 4.021-.074 5.698-.692 1.676-2.055 3.125-4.088 4.345-2.455 1.473-4.913 1.849-7.374 1.126-2.461-.722-4.495-2.421-6.101-5.097-1.594-2.655-2.145-5.233-1.655-7.735.491-2.501 1.927-4.466 4.308-5.896 2.539-1.523 4.958-1.911 7.256-1.162 2.298.749 4.368 2.598 6.21 5.548zm-4.435.383c-1.239-1.922-2.54-3.151-3.9-3.688-1.362-.537-2.76-.376-4.192.484-1.338.803-2.091 1.936-2.26 3.398-.168 1.463.248 3.22 1.25 5.27l9.102-5.464z" font-family="DejaVu Serif" font-size="24" font-weight="400" style="text-align:start;line-height:125%"/><path d="M-243 158h202" color="#000" overflow="visible" style="marker:none"/><path fill="none" stroke="#000" d="M-274 256c0-.333 0-.667 0 0z"/><path d="M306.768 294.633l-5.356 5.379 5.356 5.355-1.395 1.418-5.379-5.379-5.379 5.38-1.383-1.419 5.344-5.355-5.344-5.38 1.383-1.417 5.38 5.379 5.378-5.38 1.395 1.419z" font-family="DejaVu Sans" font-size="24" font-weight="400" style="text-align:start;line-height:125%"/><path fill="red" fill-rule="evenodd" d="M99.817 408.648L84.63 424.344l21.187-5.304-7.172-1.922 403.46-232.937-1.922 7.171 15.187-15.696-21.187 5.304 7.172 1.922-403.46 232.937 1.922-7.171z"/><text x="154.352" y="471.708" font-family="DejaVu Serif" font-size="40" font-style="italic" font-weight="400" letter-spacing="0" style="line-height:1.25;-inkscape-font-specification:'DejaVu Serif Italic'" word-spacing="0"><tspan x="154.352" y="471.708" font-size="76.72" font-style="normal" style="-inkscape-font-specification:'DejaVu Serif'"><tspan fill="green" font-family="Cambria Math" style="-inkscape-font-specification:'Cambria Math'">π</tspan> = <tspan font-style="italic" style="-inkscape-font-specification:'DejaVu Serif Italic'"><tspan fill="#00f">C</tspan>/<tspan fill="red">d</tspan></tspan></tspan></text></svg>